<svg width="26" height="26" viewBox="0 0 26 26" fill="none" xmlns="http://www.w3.org/2000/svg">
<path d="M1 4V17.5C1 19.1547 2.34531 20.5 4 20.5H17.8563L23.8094 24.8547C23.9406 24.9484 24.0953 25 24.25 25C24.3672 25 24.4844 24.9719 24.5922 24.9203C24.8453 24.7937 25 24.5312 25 24.25V4C25 2.34531 23.6547 1 22 1H4C2.34531 1 1 2.34531 1 4Z" fill="#823094"/>
<path d="M19.7734 9.27344H5.42969C4.64219 9.27344 4 8.63125 4 7.84375C4 7.05625 4.64219 6.41406 5.42969 6.41406H19.7734C20.5609 6.41406 21.2031 7.05625 21.2031 7.84375C21.2031 8.63125 20.5609 9.27344 19.7734 9.27344Z" fill="white"/>
<path d="M14.2938 14.4297H5.16719C4.525 14.4297 4 13.9047 4 13.2625V12.7375C4 12.0953 4.525 11.5703 5.16719 11.5703H14.2938C14.9359 11.5703 15.4609 12.0953 15.4609 12.7375V13.2625C15.4609 13.9047 14.9359 14.4297 14.2938 14.4297Z" fill="#BE4798"/>
</svg>
