<svg width="27" height="26" viewBox="0 0 27 26" fill="none" xmlns="http://www.w3.org/2000/svg">
<path d="M4.00011 8.78975C4.30945 8.6112 4.69055 8.6112 4.99989 8.78975L7.89701 10.4619C8.20647 10.6406 8.39711 10.9707 8.39711 11.328V14.6719C8.39711 15.0292 8.20647 15.3594 7.89701 15.538L4.99989 17.2102C4.69055 17.3887 4.30945 17.3887 4.00011 17.2102L1.10299 15.538C0.793531 15.3594 0.602886 15.0292 0.602886 14.6719V11.328C0.602886 10.9707 0.793531 10.6406 1.10299 10.4619L4.00011 8.78975Z" fill="#A8B4C3"/>
<path d="M13.0001 8.78975C13.3095 8.6112 13.6905 8.6112 13.9999 8.78975L16.897 10.4619C17.2065 10.6406 17.3971 10.9707 17.3971 11.328V14.6719C17.3971 15.0292 17.2065 15.3594 16.897 15.538L13.9999 17.2102C13.6905 17.3887 13.3095 17.3887 13.0001 17.2102L10.103 15.538C9.79353 15.3594 9.60289 15.0292 9.60289 14.6719V11.328C9.60289 10.9707 9.79353 10.6406 10.103 10.4619L13.0001 8.78975Z" fill="#CBD1E1"/>
<path d="M22.0001 8.78975C22.3095 8.6112 22.6905 8.6112 22.9999 8.78975L25.897 10.4619C26.2065 10.6406 26.3971 10.9707 26.3971 11.328V14.6719C26.3971 15.0292 26.2065 15.3594 25.897 15.538L22.9999 17.2102C22.6905 17.3887 22.3095 17.3887 22.0001 17.2102L19.103 15.538C18.7935 15.3594 18.6029 15.0292 18.6029 14.6719V11.328C18.6029 10.9707 18.7935 10.6406 19.103 10.4619L22.0001 8.78975Z" fill="#CBD1E1"/>
</svg>
