<svg xmlns="http://www.w3.org/2000/svg" xmlns:xlink="http://www.w3.org/1999/xlink" version="1.1" width="76pt" height="76pt" viewBox="0 0 76 76">
<path transform="matrix(1,0,0,-1,0,76)" d="M76 38C76 17.01318 58.98682 0 38 0 17.01318 0 0 17.01318 0 38 0 58.98682 17.01318 76 38 76 58.98682 76 76 58.98682 76 38Z" fill="#ffffff"/>
<path transform="matrix(1,0,0,-1,23,47.150148)" d="M12.704145 17.70936C12.895173 17.483649 13 17.197527 13 16.901829V1.400198C13 .709843 12.440356 .150198 11.75 .150198 11.454207 .150198 11.167998 .255093 10.942257 .446232L5.975129 4.652001H2.25C1.007359 4.652001 0 5.659361 0 6.902001V11.402C0 12.644642 1.007359 13.652 2.25 13.652H5.975223L10.94247 17.855975C11.46943 18.301962 12.258159 18.23632 12.704145 17.70936Z" fill="#212121"/>
<path transform="matrix(1,0,0,-1,42.43579,44.30249)" d="M1.567088 7.897166V11.800263C1.567088 12.231462 2.068506 12.450204 2.383784 12.187662L2.43449 12.139403 5.575605 8.736528C5.753495 8.543814 5.750174 8.250544 5.579074 8.061937L5.528261 8.013248 3.477022 6.304197 5.528457 4.59321C5.729763 4.425312 5.764634 4.13428 5.619682 3.925056L5.575682 3.870177 2.434566 .465757C2.142128 .148806 1.625215 .328145 1.571613 .734953L1.567088 .804815V4.712879L.82007 4.090479C.607916 3.913716 .292636 3.942407 .115873 4.154561-.04482 4.347429-.035718 4.625524 .12666 4.807297L.179955 4.858758 1.567088 6.014489V6.595003L.179759 7.752095C-.032305 7.928966-.060835 8.244261 .116036 8.456325 .276828 8.649111 .552019 8.690214 .760052 8.56321L.820266 8.520048 1.567088 7.897166V11.800263 7.897166ZM2.695985 5.653453 2.567088 5.546059V2.084066L4.484264 4.16195 2.695985 5.653453ZM7.744189 9.388192C7.954398 9.567265 8.269973 9.542024 8.449045 9.331815 9.16313 8.493567 9.562332 7.429917 9.562332 6.305964 9.562332 5.178506 9.160625 4.111777 8.442497 3.272447 8.262974 3.062623 7.947346 3.038059 7.737522 3.217584 7.527699 3.397107 7.503137 3.712735 7.682661 3.922559 8.247223 4.582407 8.562332 5.419177 8.562332 6.305964 8.562332 7.189998 8.249189 8.024349 7.687812 8.683336 7.508739 8.893545 7.53398 9.20912 7.744189 9.388192ZM6.414394 8.179366C6.624603 8.358438 6.940178 8.333198 7.11925 8.122989 7.548346 7.619283 7.788383 6.979722 7.788383 6.304433 7.788383 5.627038 7.54684 4.985626 7.115317 4.481272 6.935793 4.271448 6.620165 4.246885 6.410342 4.426409 6.200519 4.605933 6.175955 4.921561 6.355479 5.131384 6.633437 5.456256 6.788383 5.867709 6.788383 6.304433 6.788383 6.739803 6.634406 7.150065 6.358017 7.474511 6.178945 7.684719 6.204186 8.000294 6.414394 8.179366ZM2.567088 10.521438V7.063122L2.696316 6.955339 4.483991 8.444794 2.567088 10.521438Z" fill="#28323e"/>
</svg>
