<svg xmlns="http://www.w3.org/2000/svg" xmlns:xlink="http://www.w3.org/1999/xlink" version="1.1" width="76pt" height="76pt" viewBox="0 0 76 76">
<path transform="matrix(1,0,0,-1,0,76)" d="M76 38C76 17.01318 58.98682 0 38 0 17.01318 0 0 17.01318 0 38 0 58.98682 17.01318 76 38 76 58.98682 76 76 58.98682 76 38Z" fill="#ffffff"/>
<path transform="matrix(1,0,0,-1,28,47.79492)" d="M13 17.544919C13 18.62354 11.725548 19.195775 10.919451 18.479096L6.427943 14.485828C6.290648 14.363764 6.113326 14.296335 5.929614 14.296335H2.25C1.007359 14.296335 0 13.288976 0 12.046335V7.54843C0 6.305789 1.00736 5.298431 2.25 5.298431H5.929562C6.11329 5.298431 6.290626 5.230992 6.427926 5.108908L10.919394 1.115189C11.725478 .398438 13 .970661 13 2.049316V17.544919ZM16.991595 15.897593C17.32445 16.14413 17.79414 16.074154 18.040677 15.7413 19.271733 14.079222 20.000018 12.021022 20.000018 9.794906 20.000018 7.568789 19.271733 5.51059 18.040677 3.848511 17.79414 3.515656 17.32445 3.445681 16.991595 3.692217 16.65874 3.938754 16.588765 4.408444 16.8353 4.741299 17.881543 6.153853 18.500018 7.901062 18.500018 9.794906 18.500018 11.688749 17.881543 13.435957 16.8353 14.848512 16.588765 15.181367 16.65874 15.651056 16.991595 15.897593ZM15.142953 13.425594C15.507216 13.622786 15.962367 13.487347 16.15956 13.123083 16.695818 12.132472 17 10.998102 17 9.79492 17 8.591739 16.695818 7.457369 16.15956 6.466758 15.962367 6.102493 15.507217 5.967054 15.142953 6.164247 14.778688 6.361438 14.64325 6.816587 14.840442 7.180852 15.260942 7.957623 15.5 8.847237 15.5 9.79492 15.5 10.742603 15.260942 11.632217 14.840442 12.408989 14.64325 12.773252 14.778688 13.228403 15.142953 13.425594Z" fill="#28323e" fill-rule="evenodd"/>
</svg>
