<svg xmlns="http://www.w3.org/2000/svg" xmlns:xlink="http://www.w3.org/1999/xlink" version="1.1" width="76pt" height="76pt" viewBox="0 0 76 76">
<path transform="matrix(1,0,0,-1,0,76)" d="M76 38C76 17.01318 58.98682 0 38 0 17.01318 0 0 17.01318 0 38 0 58.98682 17.01318 76 38 76 58.98682 76 76 58.98682 76 38Z" fill="#ffffff"/>
<path transform="matrix(1,0,0,-1,28,48.609376)" d="M19.59594 4.790338 16.500252 7.88637C15.883649 8.500497 14.862542 8.481838 14.224458 7.843524L12.664837 6.284249C12.566303 6.338555 12.464314 6.39528 12.357083 6.455461 11.372199 7.001172 10.024218 7.749136 8.605747 9.168643 7.183074 10.591144 6.434419 11.941198 5.887037 12.926716 5.829275 13.031124 5.773932 13.131789 5.71928 13.227386L6.766015 14.272567 7.280629 14.787813C7.919692 15.42705 7.937314 16.447869 7.32215 17.063782L4.226463 20.160159C3.6113 20.775208 2.589731 20.756548 1.950668 20.117314L1.078198 19.239832 1.10204 19.216164C.809488 18.842873 .565024 18.412339 .383101 17.948058 .215402 17.50612 .110994 17.084399 .063253 16.661812-.345513 13.273055 1.20305 10.175986 5.405652 5.973328 11.214924 .164459 15.896434 .603287 16.098399 .62471 16.538262 .677288 16.95981 .782387 17.388215 .948761 17.848465 1.128553 18.27871 1.372673 18.65177 1.664591L18.670832 1.647659 19.554705 2.513161C20.192444 3.152281 20.210816 4.173447 19.59594 4.790338Z" fill="#28323e"/>
</svg>
