<svg xmlns="http://www.w3.org/2000/svg" xmlns:xlink="http://www.w3.org/1999/xlink" version="1.1" width="76pt" height="76pt" viewBox="0 0 76 76">
<path transform="matrix(1,0,0,-1,0,76)" d="M38 0C58.98682 0 76 17.01318 76 38 76 58.986825 58.98682 76 38 76 17.013178 76 0 58.986825 0 38 0 17.01318 17.013178 0 38 0Z" fill="#ff3b30" fill-rule="evenodd"/>
<path transform="matrix(1,0,0,-1,25,54)" d="M22.518519 20.081185V23.407408C22.518519 28.145186 18.264889 32 13.037037 32 7.809186 32 3.555556 28.145186 3.555556 23.407408V20.081185C1.540148 19.733925 0 17.977482 0 15.863705V4.28326C0 1.92178 1.921778 0 4.283852 0H21.790223C24.152297 0 26.074074 1.921778 26.074074 4.283852V15.864296C26.074074 17.977482 24.533926 19.733925 22.518519 20.081185ZM4.740741 23.407408C4.740741 27.49215 8.462222 30.814816 13.037037 30.814816 17.61185 30.814816 21.333334 27.49215 21.333334 23.407408V20.148148H4.740741V23.407408Z" fill="#ffffff"/>
<path transform="matrix(1,0,0,-1,35.664064,46.88867)" d="M2.37037 8.296875C1.063111 8.296875 0 7.233764 0 5.926504V2.370948C0 1.063689 1.063111 .000578 2.37037 .000578 3.67763 .000578 4.740741 1.063689 4.740741 2.370948V5.926504C4.740741 7.233764 3.67763 8.296875 2.37037 8.296875Z" fill="#ff3b30"/>
</svg>
