<?xml version="1.0" encoding="utf-8"?>
<!-- Generator: Adobe Illustrator 24.1.1, SVG Export Plug-In . SVG Version: 6.00 Build 0)  -->
<svg version="1.1" id="Слой_1" xmlns="http://www.w3.org/2000/svg" xmlns:xlink="http://www.w3.org/1999/xlink" x="0px" y="0px"
	 viewBox="0 0 180 180" style="enable-background:new 0 0 180 180;" xml:space="preserve">
<style type="text/css">
	.st0{fill:url(#SVGID_1_);}
	.st1{fill:#FFFFFF;}
</style>
<g>
	
		<linearGradient id="SVGID_1_" gradientUnits="userSpaceOnUse" x1="0" y1="91.2756" x2="180" y2="91.2756" gradientTransform="matrix(1 0 0 -1 0 181.2756)">
		<stop  offset="0" style="stop-color:#F52909"/>
		<stop  offset="1" style="stop-color:#E84226"/>
	</linearGradient>
	<circle class="st0" cx="90" cy="90" r="90"/>
</g>
<path class="st1" d="M58.3,107c3.3-3.3,7.1-6.2,11.4-8.3c2-1,3.3-3,3.4-5.2l1.6-10.9c10.1-3.3,20.9-3.3,31,0l1.5,10.7
	c0,2.3,1.3,4.4,3.3,5.4c4.2,2.1,8.1,4.9,11.4,8.3c2.4,2.4,6.2,2.4,8.6,0l10.2-10.2c2.4-2.4,2.4-6.2,0-8.6
	c-27.9-27.9-73.1-27.9-101.1,0c-2.4,2.4-2.4,6.2,0,8.6l10,10C52,109.4,55.9,109.3,58.3,107z"/>
</svg>
