<svg width="458" height="360" viewBox="0 0 458 360" fill="none" xmlns="http://www.w3.org/2000/svg">
<g style="mix-blend-mode:color-dodge" opacity="0.8">
<path style="mix-blend-mode:color-dodge" opacity="0.8" d="M597.689 86.5488C597.689 86.5488 499.741 196.518 276.753 129.303C157.573 93.3798 102.914 204.512 46.567 225.387C-38.3454 256.892 -87.8429 158.791 -241.303 348.553" stroke="url(#paint0_linear_20_703)" stroke-width="0.27" stroke-miterlimit="10"/>
<path style="mix-blend-mode:color-dodge" opacity="0.8" d="M597.359 73.6426C597.359 73.6426 493.703 205.019 272.776 140.164C149.163 104.702 99.1589 197.037 40.233 219.491C-45.437 251.867 -97.4972 168.202 -241.358 346.078" stroke="url(#paint1_linear_20_703)" stroke-width="0.27" stroke-miterlimit="10"/>
<path style="mix-blend-mode:color-dodge" opacity="0.8" d="M597.047 60.6809C597.047 60.6809 488.045 212.178 268.794 151.009C140.979 115.349 95.3999 189.637 33.903 213.581C-52.526 247.148 -107.148 177.599 -241.423 343.631" stroke="url(#paint2_linear_20_703)" stroke-width="0.27" stroke-miterlimit="10"/>
<path style="mix-blend-mode:color-dodge" opacity="0.8" d="M596.707 47.8022C596.707 47.8022 482.125 220.183 264.817 161.871C132.644 126.406 91.6182 182.245 27.5729 207.671C-59.6258 242.273 -116.794 186.983 -241.478 341.186" stroke="url(#paint3_linear_20_703)" stroke-width="0.27" stroke-miterlimit="10"/>
<path style="mix-blend-mode:color-dodge" opacity="0.8" d="M596.418 34.8939C596.418 34.8939 476.16 228.297 260.83 172.73C124.309 137.495 87.8363 174.852 21.243 201.762C-66.7212 237.353 -126.431 196.37 -241.538 338.725" stroke="url(#paint4_linear_20_703)" stroke-width="0.27" stroke-miterlimit="10"/>
<path style="mix-blend-mode:color-dodge" opacity="0.8" d="M596.065 21.9647C596.065 21.9647 470.191 236.455 256.852 183.593C115.956 148.639 84.0809 167.347 14.9221 195.855C-73.8218 232.417 -136.1 205.824 -241.612 336.244" stroke="url(#paint5_linear_20_703)" stroke-width="0.27" stroke-miterlimit="10"/>
<path style="mix-blend-mode:color-dodge" opacity="0.8" d="M595.739 9.04459C595.739 9.04459 464.154 244.791 252.861 194.437C107.571 159.819 80.2978 159.863 8.61927 189.954C-80.9041 227.486 -145.709 215.252 -241.639 333.839" stroke="url(#paint6_linear_20_703)" stroke-width="0.27" stroke-miterlimit="10"/>
<path style="mix-blend-mode:color-dodge" opacity="0.8" d="M595.409 -3.86175C595.409 -3.86175 458.118 253.158 248.938 205.319C99.1951 171.064 76.5427 152.388 2.27074 184.039C-88.0189 222.5 -155.415 224.695 -241.722 331.385" stroke="url(#paint7_linear_20_703)" stroke-width="0.27" stroke-miterlimit="10"/>
<path style="mix-blend-mode:color-dodge" opacity="0.8" d="M595.083 -16.782C595.083 -16.782 452.055 261.608 244.914 216.169C90.7925 182.362 72.741 144.867 -4.06893 178.126C-95.1248 217.516 -165.081 234.044 -241.791 328.921" stroke="url(#paint8_linear_20_703)" stroke-width="0.27" stroke-miterlimit="10"/>
<path style="mix-blend-mode:color-dodge" opacity="0.8" d="M594.757 -29.7021C594.757 -29.7021 445.979 270.131 240.954 226.978C82.4131 193.713 69.059 137.385 -10.3902 172.22C-102.24 212.529 -174.714 243.45 -241.847 326.445" stroke="url(#paint9_linear_20_703)" stroke-width="0.27" stroke-miterlimit="10"/>
<path style="mix-blend-mode:color-dodge" opacity="0.8" d="M594.431 -42.6224C594.431 -42.6224 439.857 278.701 236.948 237.896C73.9514 205.099 65.2431 129.845 -16.7208 166.311C-109.337 207.518 -184.371 252.864 -241.938 324.081" stroke="url(#paint10_linear_20_703)" stroke-width="0.27" stroke-miterlimit="10"/>
<path style="mix-blend-mode:color-dodge" opacity="0.8" d="M594.078 -55.5515C594.078 -55.5515 433.741 287.348 232.947 248.738C65.481 216.544 61.4319 122.291 -23.0791 160.392C-116.444 202.504 -194.022 262.264 -241.966 321.584" stroke="url(#paint11_linear_20_703)" stroke-width="0.27" stroke-miterlimit="10"/>
<path style="mix-blend-mode:color-dodge" opacity="0.8" d="M593.78 -68.4627C593.78 -68.4627 427.648 296.05 228.987 259.61C57.0304 228.149 57.7079 114.749 -29.3643 154.436C-123.537 197.417 -203.652 271.627 -242.018 319.064" stroke="url(#paint12_linear_20_703)" stroke-width="0.27" stroke-miterlimit="10"/>
<path style="mix-blend-mode:color-dodge" opacity="0.8" d="M593.449 -81.3691C593.449 -81.3691 421.519 304.801 225.009 270.477C48.5787 239.662 53.908 106.97 -35.7038 148.585C-130.673 192.18 -213.354 281.088 -242.063 316.684" stroke="url(#paint13_linear_20_703)" stroke-width="0.27" stroke-miterlimit="10"/>
<path style="mix-blend-mode:color-dodge" opacity="0.8" d="M593.123 -94.2893C593.123 -94.2893 415.367 313.591 221.03 281.343C40.0958 251.303 50.1561 99.4197 -41.9981 142.688C-137.821 187.198 -222.979 290.498 -242.165 314.225" stroke="url(#paint14_linear_20_703)" stroke-width="0.27" stroke-miterlimit="10"/>
<path style="mix-blend-mode:color-dodge" opacity="0.8" d="M592.798 -107.179C592.798 -107.179 409.1 322.894 217.042 292.207C31.4761 263.464 46.3554 92.0218 -48.3658 136.767C-144.886 182.243 -232.636 299.914 -242.229 311.777" stroke="url(#paint15_linear_20_703)" stroke-width="0.27" stroke-miterlimit="10"/>
<path style="mix-blend-mode:color-dodge" opacity="0.8" d="M592.493 -120.164C592.493 -120.164 403.054 331.284 213.053 303.029C23.0529 274.774 42.5864 84.4382 -54.7322 130.838C-152.051 177.238 -242.318 309.306 -242.318 309.306" stroke="url(#paint16_linear_20_703)" stroke-width="0.27" stroke-miterlimit="10"/>
</g>
<defs>
<linearGradient id="paint0_linear_20_703" x1="596.574" y1="38.4665" x2="-248.743" y2="60.2496" gradientUnits="userSpaceOnUse">
<stop stop-color="#848587"/>
<stop offset="0.5" stop-color="#E2E2E2"/>
<stop offset="1" stop-color="#7D7E80"/>
</linearGradient>
<linearGradient id="paint1_linear_20_703" x1="-1.45704e+06" y1="3.15331e+06" x2="-898464" y2="3.33298e+06" gradientUnits="userSpaceOnUse">
<stop stop-color="#848587"/>
<stop offset="0.5" stop-color="#E2E2E2"/>
<stop offset="1" stop-color="#7D7E80"/>
</linearGradient>
<linearGradient id="paint2_linear_20_703" x1="-1.47546e+06" y1="3.21722e+06" x2="-919583" y2="3.39602e+06" gradientUnits="userSpaceOnUse">
<stop stop-color="#848587"/>
<stop offset="0.5" stop-color="#E2E2E2"/>
<stop offset="1" stop-color="#7D7E80"/>
</linearGradient>
<linearGradient id="paint3_linear_20_703" x1="-1.49362e+06" y1="3.28032e+06" x2="-940440" y2="3.45825e+06" gradientUnits="userSpaceOnUse">
<stop stop-color="#848587"/>
<stop offset="0.5" stop-color="#E2E2E2"/>
<stop offset="1" stop-color="#7D7E80"/>
</linearGradient>
<linearGradient id="paint4_linear_20_703" x1="-1.5118e+06" y1="3.3434e+06" x2="-961287" y2="3.52048e+06" gradientUnits="userSpaceOnUse">
<stop stop-color="#848587"/>
<stop offset="0.5" stop-color="#E2E2E2"/>
<stop offset="1" stop-color="#7D7E80"/>
</linearGradient>
<linearGradient id="paint5_linear_20_703" x1="-1.52989e+06" y1="3.40631e+06" x2="-982083" y2="3.58251e+06" gradientUnits="userSpaceOnUse">
<stop stop-color="#848587"/>
<stop offset="0.5" stop-color="#E2E2E2"/>
<stop offset="1" stop-color="#7D7E80"/>
</linearGradient>
<linearGradient id="paint6_linear_20_703" x1="-1.54806e+06" y1="3.46953e+06" x2="-1.00299e+06" y2="3.64486e+06" gradientUnits="userSpaceOnUse">
<stop stop-color="#848587"/>
<stop offset="0.5" stop-color="#E2E2E2"/>
<stop offset="1" stop-color="#7D7E80"/>
</linearGradient>
<linearGradient id="paint7_linear_20_703" x1="-1.56625e+06" y1="3.53269e+06" x2="-1.02386e+06" y2="3.70715e+06" gradientUnits="userSpaceOnUse">
<stop stop-color="#848587"/>
<stop offset="0.5" stop-color="#E2E2E2"/>
<stop offset="1" stop-color="#7D7E80"/>
</linearGradient>
<linearGradient id="paint8_linear_20_703" x1="-1.58467e+06" y1="3.59658e+06" x2="-1.04497e+06" y2="3.77018e+06" gradientUnits="userSpaceOnUse">
<stop stop-color="#848587"/>
<stop offset="0.5" stop-color="#E2E2E2"/>
<stop offset="1" stop-color="#7D7E80"/>
</linearGradient>
<linearGradient id="paint9_linear_20_703" x1="-1.60303e+06" y1="3.6603e+06" x2="-1.06603e+06" y2="3.83303e+06" gradientUnits="userSpaceOnUse">
<stop stop-color="#848587"/>
<stop offset="0.5" stop-color="#E2E2E2"/>
<stop offset="1" stop-color="#7D7E80"/>
</linearGradient>
<linearGradient id="paint10_linear_20_703" x1="-1.6216e+06" y1="3.72468e+06" x2="-1.0873e+06" y2="3.89654e+06" gradientUnits="userSpaceOnUse">
<stop stop-color="#848587"/>
<stop offset="0.5" stop-color="#E2E2E2"/>
<stop offset="1" stop-color="#7D7E80"/>
</linearGradient>
<linearGradient id="paint11_linear_20_703" x1="-1.63983e+06" y1="3.7881e+06" x2="-1.10827e+06" y2="3.95908e+06" gradientUnits="userSpaceOnUse">
<stop stop-color="#848587"/>
<stop offset="0.5" stop-color="#E2E2E2"/>
<stop offset="1" stop-color="#7D7E80"/>
</linearGradient>
<linearGradient id="paint12_linear_20_703" x1="-1.65806e+06" y1="3.85134e+06" x2="-1.12916e+06" y2="4.02146e+06" gradientUnits="userSpaceOnUse">
<stop stop-color="#848587"/>
<stop offset="0.5" stop-color="#E2E2E2"/>
<stop offset="1" stop-color="#7D7E80"/>
</linearGradient>
<linearGradient id="paint13_linear_20_703" x1="-1.67647e+06" y1="3.9153e+06" x2="-1.1503e+06" y2="4.08454e+06" gradientUnits="userSpaceOnUse">
<stop stop-color="#848587"/>
<stop offset="0.5" stop-color="#E2E2E2"/>
<stop offset="1" stop-color="#7D7E80"/>
</linearGradient>
<linearGradient id="paint14_linear_20_703" x1="-1.69482e+06" y1="3.97891e+06" x2="-1.17132e+06" y2="4.1473e+06" gradientUnits="userSpaceOnUse">
<stop stop-color="#848587"/>
<stop offset="0.5" stop-color="#E2E2E2"/>
<stop offset="1" stop-color="#7D7E80"/>
</linearGradient>
<linearGradient id="paint15_linear_20_703" x1="-1.71335e+06" y1="4.04315e+06" x2="-1.19254e+06" y2="4.21067e+06" gradientUnits="userSpaceOnUse">
<stop stop-color="#848587"/>
<stop offset="0.5" stop-color="#E2E2E2"/>
<stop offset="1" stop-color="#7D7E80"/>
</linearGradient>
<linearGradient id="paint16_linear_20_703" x1="-1.73224e+06" y1="4.10788e+06" x2="-1.21414e+06" y2="4.27456e+06" gradientUnits="userSpaceOnUse">
<stop stop-color="#848587"/>
<stop offset="0.5" stop-color="#E2E2E2"/>
<stop offset="1" stop-color="#7D7E80"/>
</linearGradient>
</defs>
</svg>
