<svg width="84" height="91" viewBox="0 0 84 91" fill="none" xmlns="http://www.w3.org/2000/svg">
<path d="M63.1912 61.3657C63.0525 61.4671 62.9079 61.5598 62.7579 61.6436L56.0325 65.5292L55.5615 65.793L49.4388 69.3254L45.0491 71.8594C44.01 72.461 42.8306 72.7778 41.6299 72.7778C40.4292 72.7778 39.2496 72.461 38.2105 71.8594L20.5159 61.6436C19.4759 61.0442 18.6122 60.1815 18.012 59.1421C17.4117 58.1027 17.0959 56.9236 17.0964 55.7233V35.2822C17.0954 34.0819 17.4112 32.9025 18.0115 31.8631C18.6118 30.8236 19.4756 29.9609 20.5159 29.362L38.2105 19.1414C38.3719 19.0458 38.5386 18.9594 38.7097 18.8825L58.7029 7.27248L49.9661 2.23762C47.4331 0.779587 44.5619 0.012146 41.6393 0.012146C38.7167 0.012146 35.8453 0.779587 33.3123 2.23762L8.32699 16.6594C5.79799 18.125 3.69792 20.2287 2.23669 22.7603C0.775457 25.2919 0.00415118 28.1627 0 31.0858V55.9871C0.000385453 60.1117 1.08603 64.1636 3.14783 67.7358C5.20963 71.3081 8.17497 74.275 11.7462 76.3385L33.3123 88.7868C35.8457 90.2434 38.717 91.0101 41.6393 91.0101C44.5616 91.0101 47.4327 90.2434 49.9661 88.7868L74.9516 74.3603C77.4806 72.8958 79.5807 70.793 81.0419 68.2621C82.5032 65.7313 83.2744 62.8611 83.2784 59.9386V49.7135L63.2195 61.361L63.1912 61.3657Z" fill="url(#paint0_linear_0_1)"/>
<path d="M74.9517 16.6495L65.2683 11.0635L48.2188 20.9543L62.758 29.3521C63.7975 29.9518 64.6609 30.8146 65.2612 31.8539C65.8614 32.8932 66.1772 34.0722 66.1771 35.2724V52.035L83.2784 42.1112V31.0665C83.2721 28.1451 82.5001 25.2765 81.039 22.7468C79.5779 20.217 77.479 18.1147 74.9517 16.6495Z" fill="url(#paint1_linear_0_1)"/>
<defs>
<linearGradient id="paint0_linear_0_1" x1="0" y1="45.5028" x2="83.2784" y2="45.5028" gradientUnits="userSpaceOnUse">
<stop stop-color="#C65798"/>
<stop offset="0.04" stop-color="#C05497"/>
<stop offset="0.33" stop-color="#984394"/>
<stop offset="0.6" stop-color="#7C3792"/>
<stop offset="0.83" stop-color="#6A3091"/>
<stop offset="1" stop-color="#642D90"/>
</linearGradient>
<linearGradient id="paint1_linear_0_1" x1="48.2188" y1="31.5516" x2="83.2784" y2="31.5516" gradientUnits="userSpaceOnUse">
<stop stop-color="#E7971B"/>
<stop offset="1" stop-color="#F1B606"/>
</linearGradient>
</defs>
</svg>
