<svg width="40" height="40" viewBox="0 0 40 40" fill="none" xmlns="http://www.w3.org/2000/svg">
<g clip-path="url(#clip0_3942_10475)">
<path d="M0 20C0 31.0457 8.95431 40 20 40C31.0457 40 40 31.0457 40 20C40 8.95431 31.0457 0 20 0C8.95431 0 0 8.95431 0 20Z" fill="#7D3DAF"/>
<path d="M29.5528 15.0179L29.5469 14.9938C29.0644 13.0244 26.8891 10.9118 24.8915 10.4714L24.8689 10.4668C21.6523 9.84441 18.3479 9.84441 15.1313 10.4668L15.1081 10.4714C13.1111 10.9111 10.9359 13.0244 10.4527 14.9938L10.4474 15.0179C9.85087 17.7483 9.85087 20.5772 10.4474 23.3077L10.4527 23.3318C10.9166 25.2169 12.9282 27.2331 14.8516 27.7879V29.9861C14.8517 30.1624 14.904 30.3346 15.0017 30.4806C15.0995 30.6266 15.2382 30.7398 15.4002 30.8056C15.5621 30.8714 15.7398 30.8869 15.9105 30.85C16.0812 30.813 16.2371 30.7254 16.3581 30.5984L18.5639 28.2831C19.0424 28.3107 19.5211 28.3248 20.0001 28.3252C21.634 28.3242 23.2642 28.1673 24.8689 27.8568L24.8915 27.8521C26.8891 27.4125 29.067 25.2992 29.5469 23.3298L29.5528 23.3057C30.1491 20.5759 30.1491 17.7477 29.5528 15.0179ZM27.8071 22.9089C27.4849 24.1937 25.8333 25.791 24.521 26.0861C22.8145 26.4151 21.0779 26.5567 19.3413 26.5084C19.3243 26.508 19.3074 26.5111 19.2917 26.5175C19.276 26.524 19.2617 26.5336 19.2498 26.5459L17.6393 28.2155L15.926 29.9908C15.8987 30.0209 15.8629 30.0418 15.8235 30.0509C15.7841 30.0599 15.7429 30.0566 15.7054 30.0414C15.6679 30.0262 15.6359 29.9999 15.6136 29.9658C15.5913 29.9318 15.5798 29.8917 15.5807 29.851V26.2093C15.5804 26.1801 15.5702 26.1519 15.5517 26.1294C15.5332 26.107 15.5076 26.0917 15.4793 26.0861C14.1669 25.791 12.5159 24.1937 12.1932 22.9089C11.656 20.44 11.656 17.8829 12.1932 15.414C12.5159 14.1292 14.1669 12.5319 15.4793 12.2367C18.4664 11.6606 21.5345 11.6606 24.5216 12.2367C25.8346 12.5319 27.4856 14.1292 27.8077 15.414C28.3454 17.8828 28.3452 20.4401 27.8071 22.9089Z" fill="white"/>
<path d="M22.6117 24.7827C22.4046 24.7221 22.2076 24.6813 22.0249 24.6075C20.1284 23.845 18.3835 22.8606 16.9985 21.3527C16.2126 20.4967 15.5972 19.5268 15.077 18.5022C14.8304 18.0162 14.6225 17.5112 14.4106 17.0094C14.2177 16.5518 14.5023 16.079 14.8019 15.7346C15.0881 15.4155 15.4406 15.1586 15.8363 14.9807C16.142 14.8385 16.4436 14.9208 16.667 15.1716C17.1565 15.7086 17.5874 16.2931 17.9528 16.9159C18.1736 17.3031 18.1125 17.7766 17.7124 18.0399C17.6153 18.1058 17.527 18.1795 17.4359 18.252C17.3544 18.311 17.2839 18.3832 17.2274 18.4653C17.1806 18.5421 17.1526 18.6283 17.1457 18.7173C17.1387 18.8062 17.153 18.8955 17.1873 18.9783C17.6805 20.2952 18.5125 21.3158 19.8778 21.8663C20.0958 21.9546 20.3152 22.0573 20.5672 22.0283C20.9884 21.9809 21.1249 21.5325 21.4204 21.2987C21.7158 21.065 22.0779 21.0669 22.389 21.2572C22.7 21.4475 23.0003 21.6523 23.3012 21.8604C23.5985 22.057 23.885 22.2684 24.1597 22.4938C24.4206 22.7164 24.5102 23.0088 24.3635 23.311C24.0918 23.8648 23.7033 24.325 23.1409 24.6194C22.9819 24.7023 22.7911 24.7293 22.6117 24.7827C22.7911 24.7293 22.4046 24.7208 22.6117 24.7827ZM19.691 14.3479C22.1716 14.4137 24.2086 16.0112 24.6454 18.3883C24.7194 18.7932 24.7459 19.2074 24.7812 19.6183C24.7948 19.7915 24.6936 19.9554 24.5014 19.9574C24.3092 19.9594 24.2134 19.7987 24.2005 19.6282C24.1747 19.2858 24.157 18.942 24.1081 18.6029C23.8514 16.8119 22.3781 15.3297 20.5394 15.0116C20.2623 14.9642 19.979 14.9517 19.6992 14.9227C19.5219 14.905 19.2916 14.8944 19.2502 14.6811C19.245 14.64 19.2489 14.5983 19.2615 14.5587C19.2741 14.5191 19.2953 14.4826 19.3235 14.4515C19.3517 14.4204 19.3864 14.3955 19.4253 14.3783C19.4641 14.3611 19.5063 14.3521 19.5491 14.3519C19.5973 14.3519 19.6455 14.3519 19.6931 14.3519C22.1716 14.4151 19.6435 14.3479 19.691 14.3479Z" fill="white"/>
<path d="M23.0437 18.3644C23.0403 18.4154 23.0328 18.4662 23.0211 18.5162C22.9584 18.7364 22.6122 18.764 22.532 18.542C22.5108 18.4733 22.5015 18.4017 22.5044 18.3301C22.5117 17.8645 22.3908 17.4052 22.1538 16.9985C21.8991 16.5789 21.5215 16.2398 21.0677 16.0233C20.7937 15.8989 20.5021 15.8134 20.2023 15.7695C20.0713 15.7485 19.9396 15.7359 19.8085 15.7185C19.7391 15.7136 19.6746 15.6826 19.6292 15.6322C19.5837 15.5818 19.5611 15.5163 19.5661 15.4499C19.5712 15.3835 19.6036 15.3218 19.6562 15.2783C19.7089 15.2348 19.7774 15.2131 19.8468 15.218C20.3692 15.2371 20.881 15.3646 21.3468 15.5918C22.2968 16.0719 22.8393 16.8335 22.9979 17.8483C23.0048 17.8939 23.0167 17.9395 23.0199 17.9857C23.0293 18.0997 23.0349 18.2137 23.0437 18.3644C23.0399 18.3914 23.0349 18.2137 23.0437 18.3644Z" fill="white"/>
<path d="M21.9779 18.6934C21.8042 18.6967 21.7109 18.6036 21.6932 18.4493C21.6838 18.3412 21.6675 18.2337 21.6443 18.1275C21.5967 17.9191 21.4745 17.7337 21.2992 17.6041C21.2142 17.545 21.1192 17.5006 21.0185 17.473C20.891 17.4372 20.7583 17.4471 20.6314 17.4179C20.6005 17.4128 20.5711 17.4018 20.5446 17.3856C20.5182 17.3694 20.4954 17.3483 20.4774 17.3235C20.4595 17.2987 20.4468 17.2707 20.4401 17.2411C20.4334 17.2116 20.4328 17.181 20.4383 17.1512C20.45 17.0932 20.4834 17.0414 20.532 17.0056C20.5806 16.9699 20.6411 16.9527 20.702 16.9573C21.5076 17.0124 22.0838 17.4168 22.1658 18.3347C22.1763 18.3995 22.1763 18.4655 22.1658 18.5303C22.1579 18.5738 22.1354 18.6137 22.1017 18.6436C22.0681 18.6734 22.0251 18.6917 21.9796 18.6956C21.8042 18.6967 22.057 18.6884 21.9779 18.6934Z" fill="white"/>
</g>
<defs>
<clipPath id="clip0_3942_10475">
<rect width="40" height="40" rx="20" fill="white"/>
</clipPath>
</defs>
</svg>
