<svg width="27" height="26" viewBox="0 0 27 26" fill="none" xmlns="http://www.w3.org/2000/svg">
<path d="M13.5001 0C6.32082 0 0.499512 5.82016 0.499512 13C0.499512 20.1798 6.32025 26 13.5001 26C20.6805 26 26.5007 20.1798 26.5007 13C26.5007 5.82016 20.6805 0 13.5001 0ZM13.5001 3.88715C15.8757 3.88715 17.8007 5.81274 17.8007 8.18717C17.8007 10.5622 15.8757 12.4872 13.5001 12.4872C11.1256 12.4872 9.20063 10.5622 9.20063 8.18717C9.20063 5.81274 11.1256 3.88715 13.5001 3.88715ZM13.4972 22.6011C11.1279 22.6011 8.95793 21.7382 7.28418 20.31C6.87645 19.9623 6.64118 19.4523 6.64118 18.9172C6.64118 16.5091 8.59018 14.5818 10.9989 14.5818H16.0024C18.4117 14.5818 20.3533 16.5091 20.3533 18.9172C20.3533 19.4529 20.1191 19.9617 19.7108 20.3095C18.0377 21.7382 15.8671 22.6011 13.4972 22.6011Z" fill="#823094"/>
</svg>
