<svg width="72" height="72" viewBox="0 0 72 72" fill="none" xmlns="http://www.w3.org/2000/svg">
<g clip-path="url(#clip0_1643_2615)">
<path d="M35.7542 0.480469C55.3603 0.480469 71.2542 16.3744 71.2542 35.9805C71.2542 55.5866 55.3603 71.4805 35.7542 71.4805C16.148 71.4805 0.25415 55.5866 0.25415 35.9805C0.25415 16.3744 16.148 0.480469 35.7542 0.480469Z" fill="url(#paint0_linear_1643_2615)"/>
<path d="M29.7863 24.3967C29.8393 26.2498 30.1683 28.0951 30.8105 29.8524C31.1101 30.6725 30.9389 31.585 30.3667 32.2722L27.8637 35.8164C29.8634 39.5079 32.9457 42.4187 36.7455 44.2041L40.063 41.5443C40.6758 40.8954 41.6153 40.6318 42.4907 40.8829C44.2819 41.4236 46.1429 41.6466 47.996 41.5936C49.3366 41.5552 50.4316 42.5893 50.4699 43.9299L50.6324 49.6076C50.6707 50.9481 49.6366 52.0431 48.296 52.0815C32.7613 52.5259 19.7833 40.2698 19.2983 24.6967C19.26 23.3562 20.2941 22.2612 21.6346 22.2228L27.2335 22.0626C28.6529 22.022 29.749 23.0956 29.7863 24.3967Z" fill="white"/>
</g>
<defs>
<linearGradient id="paint0_linear_1643_2615" x1="0.25415" y1="35.9805" x2="71.2542" y2="35.9805" gradientUnits="userSpaceOnUse">
<stop stop-color="#29AF33"/>
<stop offset="1" stop-color="#83F509"/>
</linearGradient>
<clipPath id="clip0_1643_2615">
<rect width="71" height="71" fill="white" transform="matrix(1 0 0 -1 0.25415 71.4805)"/>
</clipPath>
</defs>
</svg>
