<svg width="27" height="26" viewBox="0 0 27 26" fill="none" xmlns="http://www.w3.org/2000/svg">
<path d="M19.5551 17.5341C19.5144 17.5667 19.4737 17.5911 19.433 17.6155L17.5119 18.7226L17.3817 18.7959L15.6315 19.8053L14.3779 20.5297C13.7755 20.8798 13.0266 20.8798 12.4242 20.5297L7.36099 17.6155C6.75861 17.2655 6.38416 16.6224 6.38416 15.9224V10.0858C6.38416 9.38572 6.75861 8.74264 7.36099 8.39261L12.4161 5.47026C12.4649 5.44584 12.5056 5.42142 12.5545 5.39699L18.2689 2.07577L15.778 0.634941C14.3128 -0.211647 12.4894 -0.211647 11.016 0.634941L3.87696 4.75391C2.41171 5.60864 1.5 7.17971 1.5 8.88103V15.9956C1.5 18.397 2.77802 20.6111 4.85379 21.8078L11.016 25.3651C11.7486 25.7884 12.5708 26 13.3929 26C14.2151 26 15.0373 25.7884 15.7699 25.3651L22.9089 21.2461C24.3741 20.3995 25.2859 18.8203 25.2859 17.1271V14.2048L19.5551 17.5341Z" fill="#A8B4C3"/>
<path d="M22.9171 4.75394L20.1495 3.15845L15.2734 5.98312L19.425 8.3845C20.0274 8.73453 20.4018 9.37761 20.4018 10.0777V14.8641L25.286 12.0313V8.87291C25.2941 7.18788 24.3824 5.60867 22.9171 4.75394Z" fill="#CBD1E1"/>
</svg>
